<?xml version="1.0" encoding="utf-8"?>
<!-- Generator: Adobe Illustrator 22.1.0, SVG Export Plug-In . SVG Version: 6.00 Build 0)  -->
<svg version="1.1" id="Layer_1" xmlns="http://www.w3.org/2000/svg" xmlns:xlink="http://www.w3.org/1999/xlink" x="0px" y="0px"
	 viewBox="0 0 165.1 60.5" style="enable-background:new 0 0 165.1 60.5;" xml:space="preserve">
<style type="text/css">
	.st0{fill:#000000;}
	.st1{fill:#EDB71E;}
	.st2{fill:none;stroke:#000000;stroke-width:0.4;}
</style>
<g>
	<path class="st0" d="M22.9,31c-3.2-2-5.7-2.7-8.3-2.7c-2.9,0-5,1.7-5,4.1c0,1.9,1,2.8,4,3.6l4.3,1.2c5.9,1.6,9,5.3,9,10.6
		c0,7.2-5.9,12-14.7,12c-4.1,0-8.6-1.2-12.2-3.2L2.7,51c3.3,1.7,6.2,2.9,9.8,2.9c4.1,0,6.3-1.7,6.3-4.9c0-2.3-1.5-3.8-4.7-4.6
		l-4-1.1c-3.5-1-5.8-2.4-7-4.5c-1-1.6-1.5-3.4-1.5-5.4c0-6.5,5.2-11,12.8-11c4.4,0,8.8,1.3,11.9,3.6L22.9,31z"/>
	<path class="st0" d="M52.8,56.1c-3,2.5-6.2,3.6-9.9,3.6c-7.6,0-12.4-5.3-12.4-13.6c0-4.7,1-7.9,3.3-10.4c2.2-2.4,4.8-3.5,8.3-3.5
		c3,0,5.9,1,7.6,2.8c2.4,2.5,3.5,6,3.5,11.5v1.6H37.9v0.2c0,4.1,2,6.4,5.5,6.4c2.4,0,4.6-0.9,6.7-2.6L52.8,56.1z M46,43v-0.3
		c0-2-0.2-3-0.8-4c-0.7-1-1.6-1.5-3-1.5c-2.6,0-4.1,2.1-4.1,5.7V43H46z"/>
	<path class="st0" d="M61.6,33.7c2.6-1.1,4.8-1.5,7.2-1.5c4.4,0,7.4,1.6,8.5,4.6c0.4,1.1,0.5,1.9,0.5,4.7l-0.2,8.8v0.5
		c0,2.8,0.5,3.9,2.5,5.4l-3.6,4.2c-1.6-0.7-3-1.8-3.7-3.2c-0.5,0.5-1.1,1-1.6,1.4C69.8,59.5,68,60,65.8,60c-5.9,0-9-3-9-8.2
		c0-6.2,4.3-9,12.6-9c0.5,0,1,0,1.5,0.1v-1.1c0-2.9-0.6-3.9-3.1-3.9c-2.2,0-4.8,1.1-7.6,3l-2.9-4.9C58.7,35,59.8,34.5,61.6,33.7
		 M70.5,47.6c-4.8,0-6.4,0.9-6.4,4c0,2.1,1.3,3.4,3,3.4c1.3,0,2.6-0.7,3.6-1.8l0.1-5.7H70.5z"/>
	<polygon class="st1" points="136.9,34.9 129.1,24.1 116.4,28.2 124.3,17.4 116.4,6.7 129.1,10.8 136.9,0 136.9,13.3 149.6,17.4 
		136.9,21.6 	"/>
	<polygon class="st0" points="130,34.4 130,59.1 136.9,59.1 136.9,44 	"/>
	<path class="st0" d="M150.5,54.6V30c0-3.7-0.1-5.4-0.4-6.8l-7,2.3c0.2,2.1,0.3,4.1,0.3,7.2v22.1h0v2.3c0,0,0,0.2,0,0.2v0l0,0.2
		c0.1,0.7,0.2,1,0.4,1.4h7.5c-0.3-0.7-0.7-1.8-0.9-4.2L150.5,54.6z M164.2,54.9l0-0.2V25.5c0-3.6-0.1-5.3-0.3-6.8l-7,2.3
		c0.2,2.1,0.3,4,0.3,7.1v26.7h0v2.3c0,0,0,0.2,0,0.2v0l0,0.2c0.1,0.7,0.2,1,0.4,1.4h7.5C164.8,58.4,164.4,57.3,164.2,54.9"/>
	<path class="st0" d="M124.3,33.1c-0.8,0-1.7,0.2-2.3,0.4c-1.3,0.6-2.9,2-3.9,3.3c-0.1-1.5-0.5-2.7-1.1-3.7l-6.1,2
		c0.5,1.5,0.9,4.1,0.9,7.4v16.7h6.9V41.4c1.3-1.5,2.7-2.2,4.2-2.2c0.8,0,1.3,0.2,2,0.5l1.9-6.1C125.8,33.2,125.4,33.1,124.3,33.1"/>
	<path class="st0" d="M105.3,25.5c0-3.6-0.1-5.3-0.3-6.7L98.2,21c0.2,2.1,0.3,4.1,0.3,7.2v3.4h0c0,1.1,0.1,2,0.2,2.4
		c-1.3-1-2.8-1.5-4.7-1.5c-6.7,0-11.3,5.7-11.3,13.9c0,8.2,4.2,13.4,10.9,13.4c2.4,0,4.4-0.7,6.1-2.2c0.1,0.7,0.2,1.1,0.4,1.5h6.2
		c-0.5-1-1-3.1-1-9.6V25.5z M98.5,52.2c-0.7,0.8-2.1,1.7-3.4,1.7c-3.6,0-4.8-1.9-4.8-7.5c0-5.9,1.3-8.4,4.4-8.4
		c1.2,0,2.5,0.6,3.8,1.7V52.2z"/>
</g>
<path class="st0" d="M799.6,571.8c-0.1,0-0.2,0-0.2,0s0,0.1,0,0.3v0.7l-0.6,0.2v-0.9c0-0.1,0-0.3,0-0.3s-0.1,0-0.3,0h-2.1v-0.5
	l1.9-3.7h0.7l-1.6,3.3c-0.1,0.3-0.3,0.5-0.3,0.5s0.2,0,0.3,0h1.2c0.1,0,0.2,0,0.2,0s0-0.2,0-0.2c0-0.1,0-0.3,0-0.4l0.1-1.4l0.5-0.2
	v2c0,0.1,0,0.2,0,0.2s0.1,0,0.2,0h0.5v0.5H799.6z"/>
<g>
	<path class="st0" d="M680.6,572.5c-0.4,0.2-0.7,0.3-1.2,0.3c-0.7,0-1.2-0.2-1.8-0.5l0.3-0.5c0.5,0.3,0.9,0.5,1.5,0.5
		c0.4,0,0.6-0.1,0.9-0.2c0.3-0.2,0.4-0.5,0.4-0.8c0-0.5-0.3-0.8-1-1l-0.6-0.2c-0.5-0.2-0.8-0.3-1-0.5c-0.2-0.2-0.3-0.5-0.3-0.9
		c0-0.9,0.7-1.6,1.8-1.6c0.6,0,1.1,0.2,1.7,0.5l-0.3,0.5c-0.5-0.3-0.9-0.5-1.3-0.5c-0.7,0-1.1,0.3-1.1,0.9c0,0.4,0.3,0.7,0.9,0.9
		l0.6,0.2c0.5,0.2,0.7,0.3,1,0.6s0.4,0.6,0.4,1C681.4,571.7,681.1,572.2,680.6,572.5z M683.1,570.9L683.1,570.9c0,0.5,0,0.8,0.2,1
		c0.2,0.3,0.6,0.5,1,0.5c0.4,0,0.7-0.1,1-0.4l0.2,0.4c-0.4,0.3-0.8,0.5-1.3,0.5c-1.1,0-1.8-0.8-1.8-2.1c0-0.7,0.1-1.1,0.5-1.5
		c0.3-0.4,0.7-0.6,1.2-0.6c0.4,0,0.8,0.2,1.1,0.4c0.3,0.4,0.5,0.7,0.5,1.7v0.1H683.1z M684.7,569.5c-0.1-0.2-0.4-0.4-0.7-0.4
		c-0.6,0-0.9,0.4-0.9,1.2h1.8C684.9,570,684.8,569.7,684.7,569.5z M689.4,572.9c-0.3-0.1-0.5-0.3-0.5-0.6c-0.4,0.4-0.7,0.5-1.2,0.5
		c-1,0-1.3-0.6-1.3-1.1c0-0.9,0.8-1.4,2.1-1.4c0.2,0,0.3,0,0.3,0V570c0-0.4,0-0.5-0.1-0.6c-0.1-0.1-0.3-0.2-0.5-0.2
		c-0.4,0-1,0.2-1.3,0.5l-0.3-0.4c0.5-0.4,1.1-0.5,1.7-0.5c0.6,0,0.9,0.2,1.1,0.6c0.1,0.2,0.1,0.5,0.1,0.9l0,1.3c0,0.6,0,0.8,0.3,1
		L689.4,572.9z M688.5,570.7c-1,0-1.4,0.3-1.4,1c0,0.5,0.2,0.7,0.7,0.7c0.4,0,0.8-0.2,1-0.6l0-1
		C688.7,570.7,688.6,570.7,688.5,570.7z M693.4,572.8c0,0-0.1-0.2-0.1-0.4c-0.3,0.3-0.6,0.5-1.1,0.5c-1,0-1.6-0.7-1.6-2
		c0-0.8,0.3-1.5,0.8-1.8c0.3-0.2,0.5-0.2,0.8-0.2c0.4,0,0.8,0.2,1.1,0.5c0,0,0-0.3,0-0.6v-1.7l0.6,0.1v4.4c0,0.7,0,1.1,0.1,1.3
		H693.4z M693.3,569.6c-0.2-0.3-0.5-0.4-1-0.4c-0.3,0-0.6,0.1-0.7,0.4c-0.2,0.3-0.3,0.6-0.3,1.2c0,0.5,0,0.8,0.2,1
		c0.2,0.3,0.4,0.5,0.8,0.5c0.3,0,0.5-0.1,0.8-0.3c0.2-0.1,0.2-0.3,0.2-0.3V569.6z M697.1,569.4c0,0-0.1,0-0.2,0
		c-0.2,0-0.5,0.1-0.7,0.3s-0.2,0.3-0.2,0.6v2.5h-0.6v-3.1c0-0.6-0.1-0.8-0.1-0.8l0.6-0.2c0,0,0.2,0.3,0.1,0.6
		c0.3-0.4,0.7-0.7,1.1-0.7c0.1,0,0.2,0,0.2,0L697.1,569.4z M698.4,568c-0.3,0-0.5-0.2-0.5-0.5c0-0.3,0.2-0.5,0.5-0.5
		s0.5,0.2,0.5,0.5S698.6,568,698.4,568z M698,572.8v-4l0.6-0.1v4.1H698z M700.8,572.9c-0.2,0-0.4-0.1-0.5-0.2
		c-0.1-0.1-0.2-0.3-0.2-0.6v-4.2c0-0.5-0.1-0.8-0.1-0.8l0.6-0.1c0,0,0.1,0.3,0.1,0.9v4.1c0,0.3,0,0.4,0.2,0.4c0,0,0.1,0,0.1,0
		l0.1,0.4C701.1,572.8,701,572.9,700.8,572.9z M702.9,572.9c-0.2,0-0.4-0.1-0.5-0.2c-0.1-0.1-0.2-0.3-0.2-0.6v-4.2
		c0-0.5-0.1-0.8-0.1-0.8l0.6-0.1c0,0,0.1,0.3,0.1,0.9v4.1c0,0.3,0,0.4,0.2,0.4c0,0,0.1,0,0.1,0l0.1,0.4
		C703.1,572.8,703.1,572.9,702.9,572.9z M708.9,572.6c-0.3,0.1-0.5,0.2-1.3,0.2h-1.4v-5.5h0.8c1.1,0,1.4,0,1.6,0.1
		c0.6,0.2,0.9,0.7,0.9,1.3c0,0.6-0.4,1-1,1.2c0.3,0.1,0.5,0.1,0.7,0.3c0.4,0.3,0.5,0.7,0.5,1.1C709.7,571.9,709.4,572.4,708.9,572.6
		z M708.1,567.9c-0.2,0-0.3,0-0.6,0h-0.8v1.8h1c0.6,0,0.8-0.1,1-0.5c0.1-0.1,0.1-0.3,0.1-0.4C708.8,568.3,708.5,568,708.1,567.9z
		 M708.4,570.2c-0.2,0-0.4-0.1-0.6-0.1h-1v2h1.2c0.8,0,1.1-0.4,1.1-1C709,570.7,708.8,570.3,708.4,570.2z M712.7,569.4
		c0,0-0.1,0-0.2,0c-0.2,0-0.5,0.1-0.7,0.3s-0.2,0.3-0.2,0.6v2.5H711v-3.1c0-0.6-0.1-0.8-0.1-0.8l0.6-0.2c0,0,0.2,0.3,0.1,0.6
		c0.3-0.4,0.7-0.7,1.1-0.7c0.1,0,0.2,0,0.2,0L712.7,569.4z M716.2,572.9c-0.3-0.1-0.5-0.3-0.5-0.6c-0.4,0.4-0.7,0.5-1.2,0.5
		c-1,0-1.3-0.6-1.3-1.1c0-0.9,0.8-1.4,2.1-1.4c0.2,0,0.3,0,0.3,0V570c0-0.4,0-0.5-0.1-0.6c-0.1-0.1-0.3-0.2-0.5-0.2
		c-0.4,0-1,0.2-1.3,0.5l-0.3-0.4c0.5-0.4,1.1-0.5,1.7-0.5c0.6,0,0.9,0.2,1.1,0.6c0.1,0.2,0.1,0.5,0.1,0.9l0,1.3c0,0.6,0,0.8,0.3,1
		L716.2,572.9z M715.3,570.7c-1,0-1.4,0.3-1.4,1c0,0.5,0.2,0.7,0.7,0.7c0.4,0,0.8-0.2,1-0.6l0-1
		C715.5,570.7,715.4,570.7,715.3,570.7z M720,572.8v-2.7c0-0.4,0-0.5-0.1-0.7c-0.1-0.1-0.3-0.2-0.4-0.2c-0.3,0-0.8,0.3-1.1,0.6v3
		h-0.6v-3.1c0-0.6-0.2-0.8-0.2-0.8l0.6-0.2c0,0,0.1,0.3,0.1,0.6c0.4-0.4,0.8-0.6,1.3-0.6c0.4,0,0.8,0.2,1,0.6
		c0.1,0.1,0.1,0.3,0.1,0.5v3H720z M724.7,572.8c0,0-0.1-0.2-0.1-0.4c-0.3,0.3-0.6,0.5-1.1,0.5c-1,0-1.6-0.7-1.6-2
		c0-0.8,0.3-1.5,0.8-1.8c0.3-0.2,0.5-0.2,0.8-0.2c0.4,0,0.8,0.2,1.1,0.5c0,0,0-0.3,0-0.6v-1.7l0.6,0.1v4.4c0,0.7,0,1.1,0.1,1.3
		H724.7z M724.6,569.6c-0.2-0.3-0.5-0.4-1-0.4c-0.3,0-0.6,0.1-0.7,0.4c-0.2,0.3-0.3,0.6-0.3,1.2c0,0.5,0,0.8,0.2,1
		c0.2,0.3,0.4,0.5,0.8,0.5c0.3,0,0.5-0.1,0.8-0.3c0.2-0.1,0.2-0.3,0.2-0.3V569.6z M731.3,569.4c-0.1,0-0.2,0-0.3,0
		c0.2,0.2,0.2,0.4,0.2,0.7c0,0.4-0.2,0.9-0.6,1.1c-0.2,0.1-0.5,0.2-0.7,0.2c-0.5,0.2-0.7,0.3-0.7,0.5c0,0.1,0.1,0.2,0.3,0.2h0.6
		c0.5,0,0.7,0.1,1,0.2c0.3,0.2,0.4,0.5,0.4,0.8c0,0.9-0.6,1.3-1.6,1.3c-1.2,0-1.7-0.4-1.7-1c0-0.1,0-0.3,0.1-0.4l0.7-0.1
		c-0.1,0.1-0.1,0.2-0.1,0.4c0,0.2,0.1,0.4,0.2,0.5c0.2,0.1,0.5,0.2,0.8,0.2c0.6,0,1-0.2,1-0.7c0-0.2-0.1-0.4-0.2-0.5
		c-0.2-0.1-0.4-0.1-0.8-0.1c-0.2,0-0.5,0-0.6,0c-0.5,0-0.8-0.2-0.8-0.6c0-0.3,0.2-0.5,0.7-0.7c-0.5-0.2-0.9-0.6-0.9-1.2
		c0-0.8,0.6-1.3,1.5-1.3c0.6,0,0.7,0.2,1.2,0.2c0.2,0,0.4,0,0.6-0.2l0.4,0.4C731.7,569.3,731.5,569.4,731.3,569.4z M729.8,569.2
		c-0.5,0-0.8,0.3-0.8,0.8c0,0.5,0.3,0.8,0.8,0.8c0.5,0,0.7-0.3,0.7-0.8C730.5,569.5,730.3,569.2,729.8,569.2z M735.5,572.9
		c-0.3-0.2-0.4-0.4-0.4-0.6c-0.3,0.4-0.7,0.6-1.3,0.6c-0.5,0-0.9-0.2-1-0.6c-0.1-0.2-0.1-0.4-0.1-0.6v-2.9l0.6-0.1v2.9
		c0,0.4,0.1,0.5,0.2,0.7c0.1,0.1,0.3,0.1,0.5,0.1c0.4,0,0.8-0.3,1-0.7v-2.8l0.6-0.1v2.9c0,0.5,0.1,0.7,0.3,0.9L735.5,572.9z
		 M737.5,568c-0.3,0-0.5-0.2-0.5-0.5c0-0.3,0.2-0.5,0.5-0.5s0.5,0.2,0.5,0.5S737.8,568,737.5,568z M737.2,572.8v-4l0.6-0.1v4.1
		H737.2z M741.9,572.8c0,0-0.1-0.2-0.1-0.4c-0.3,0.3-0.6,0.5-1.1,0.5c-1,0-1.6-0.7-1.6-2c0-0.8,0.3-1.5,0.8-1.8
		c0.3-0.2,0.5-0.2,0.8-0.2c0.4,0,0.8,0.2,1.1,0.5c0,0,0-0.3,0-0.6v-1.7l0.6,0.1v4.4c0,0.7,0,1.1,0.1,1.3H741.9z M741.8,569.6
		c-0.2-0.3-0.5-0.4-1-0.4c-0.3,0-0.6,0.1-0.7,0.4c-0.2,0.3-0.3,0.6-0.3,1.2c0,0.5,0,0.8,0.2,1c0.2,0.3,0.4,0.5,0.8,0.5
		c0.3,0,0.5-0.1,0.8-0.3c0.2-0.1,0.2-0.3,0.2-0.3V569.6z M744.4,570.9L744.4,570.9c0,0.5,0,0.8,0.2,1c0.2,0.3,0.6,0.5,1,0.5
		c0.4,0,0.7-0.1,1-0.4l0.2,0.4c-0.4,0.3-0.8,0.5-1.3,0.5c-1.1,0-1.8-0.8-1.8-2.1c0-0.7,0.1-1.1,0.5-1.5c0.3-0.4,0.7-0.6,1.2-0.6
		c0.4,0,0.8,0.2,1.1,0.4c0.3,0.4,0.5,0.7,0.5,1.7v0.1H744.4z M746,569.5c-0.1-0.2-0.4-0.4-0.7-0.4c-0.6,0-0.9,0.4-0.9,1.2h1.8
		C746.2,570,746.2,569.7,746,569.5z M748.7,572.9c-0.2,0-0.4-0.1-0.5-0.2c-0.1-0.1-0.2-0.3-0.2-0.6v-4.2c0-0.5-0.1-0.8-0.1-0.8
		l0.6-0.1c0,0,0.1,0.3,0.1,0.9v4.1c0,0.3,0,0.4,0.2,0.4c0,0,0.1,0,0.1,0l0.1,0.4C749,572.8,748.9,572.9,748.7,572.9z M750.6,568
		c-0.3,0-0.5-0.2-0.5-0.5c0-0.3,0.2-0.5,0.5-0.5s0.5,0.2,0.5,0.5S750.8,568,750.6,568z M750.2,572.8v-4l0.6-0.1v4.1H750.2z
		 M754.7,572.8v-2.7c0-0.4,0-0.5-0.1-0.7c-0.1-0.1-0.3-0.2-0.4-0.2c-0.3,0-0.8,0.3-1.1,0.6v3h-0.6v-3.1c0-0.6-0.2-0.8-0.2-0.8
		l0.6-0.2c0,0,0.1,0.3,0.1,0.6c0.4-0.4,0.8-0.6,1.3-0.6c0.4,0,0.8,0.2,1,0.6c0.1,0.1,0.1,0.3,0.1,0.5v3H754.7z M757.3,570.9
		L757.3,570.9c0,0.5,0,0.8,0.2,1c0.2,0.3,0.6,0.5,1,0.5c0.4,0,0.7-0.1,1-0.4l0.2,0.4c-0.4,0.3-0.8,0.5-1.3,0.5
		c-1.1,0-1.8-0.8-1.8-2.1c0-0.7,0.1-1.1,0.5-1.5c0.3-0.4,0.7-0.6,1.2-0.6c0.4,0,0.8,0.2,1.1,0.4c0.3,0.4,0.5,0.7,0.5,1.7v0.1H757.3z
		 M759,569.5c-0.1-0.2-0.4-0.4-0.7-0.4c-0.6,0-0.9,0.4-0.9,1.2h1.8C759.1,570,759.1,569.7,759,569.5z M762.1,572.9
		c-0.5,0-1.1-0.2-1.5-0.4l0.2-0.5c0.4,0.2,0.8,0.4,1.3,0.4c0.5,0,0.8-0.3,0.8-0.7c0-0.4-0.2-0.6-0.7-0.7l-0.5-0.1
		c-0.7-0.1-1-0.5-1-1.1c0-0.7,0.6-1.2,1.4-1.2c0.4,0,0.9,0.1,1.2,0.3l-0.2,0.5c-0.4-0.2-0.6-0.3-1-0.3c-0.5,0-0.8,0.3-0.8,0.7
		c0,0.3,0.2,0.5,0.6,0.6l0.5,0.1c0.7,0.2,1.1,0.5,1.1,1.1C763.6,572.4,763,572.9,762.1,572.9z M769.4,572.8h-3.1v-0.4
		c0.3-0.2,0.7-0.6,1.2-1.1c0.9-1,1.2-1.6,1.2-2.2s-0.4-1-1-1c-0.5,0-0.8,0.2-1.2,0.5l-0.3-0.3c0.6-0.5,1.1-0.8,1.7-0.8
		c0.8,0,1.5,0.6,1.5,1.5c0,0.5-0.2,1-0.5,1.4c-0.2,0.3-0.4,0.5-0.7,0.8c-0.5,0.6-1,1-1.2,1.1c0,0,0.4,0,0.7,0h1.7L769.4,572.8z
		 M772.4,572.9c-1.4,0-1.8-1.7-1.8-2.8c0-1.4,0.8-2.6,1.8-2.6c1.4,0,1.9,1.6,1.9,2.7C774.3,571.8,773.5,572.9,772.4,572.9z
		 M773.4,568.8c-0.2-0.6-0.5-0.9-1-0.9c-0.3,0-0.6,0.2-0.8,0.7c-0.2,0.4-0.3,0.8-0.3,1.5c0,0.6,0.1,1.1,0.2,1.4
		c0.2,0.6,0.6,0.9,1,0.9c0.4,0,0.7-0.3,0.9-0.8c0.2-0.4,0.2-0.9,0.2-1.5C773.6,569.6,773.5,569.2,773.4,568.8z M776.3,568.3
		c0,0-0.3,0.2-0.6,0.4c-0.2,0.1-0.7,0.3-0.7,0.3l-0.1-0.3l1.5-1.1h0.5v5.2h-0.6V568.3z M780,572.9c-1,0-1.8-0.6-1.8-1.5
		c0-0.7,0.5-1.2,1.1-1.4c-0.6-0.3-0.9-0.7-0.9-1.2c0-1,0.9-1.3,1.7-1.3c0.9,0,1.5,0.5,1.5,1.2c0,0.7-0.6,1.1-1.1,1.3
		c0.6,0.3,1.3,0.5,1.3,1.4C781.8,572.3,780.9,572.9,780,572.9z M780.9,570.9c-0.2-0.2-0.5-0.4-1.2-0.7c-0.5,0.3-0.9,0.6-0.9,1.2
		c0,0.6,0.5,1,1.2,1c0.7,0,1.1-0.4,1.1-1C781.1,571.3,781.1,571.1,780.9,570.9z M780,567.9c-0.6,0-1,0.3-1,0.8c0,0.6,0.6,0.9,1.1,1
		c0.6-0.3,0.9-0.7,0.9-1C781,568.2,780.6,567.9,780,567.9z"/>
	<line class="st2" x1="788.2" y1="565.3" x2="788.2" y2="574.3"/>
</g>
</svg>
